<svg viewBox="0 0 200 200" xmlns="http://www.w3.org/2000/svg" fill="none">
  <defs>
    <linearGradient id="faviconGrad" x1="0%" y1="0%" x2="100%" y2="100%">
      <stop offset="0%" style="stop-color:#2563eb;stop-opacity:1" />
      <stop offset="100%" style="stop-color:#0f172a;stop-opacity:1" />
    </linearGradient>
  </defs>
  <rect width="200" height="200" fill="#0f172a"/>
  <circle cx="100" cy="100" r="80" stroke="url(#faviconGrad)" stroke-width="3"/>
  <path d="M 100 40 Q 130 45 140 70 Q 135 55 125 50 Q 115 48 100 48 Q 85 48 75 50 Q 65 55 60 70 Q 70 45 100 40" fill="#2563eb" opacity="0.15"/>
  <circle cx="100" cy="100" r="5" fill="#2563eb"/>
  <circle cx="75" cy="90" r="4" fill="#2563eb" opacity="0.7"/>
  <circle cx="125" cy="90" r="4" fill="#2563eb" opacity="0.7"/>
  <circle cx="85" cy="115" r="4" fill="#2563eb" opacity="0.7"/>
  <circle cx="115" cy="115" r="4" fill="#2563eb" opacity="0.7"/>
  <line x1="100" y1="100" x2="75" y2="90" stroke="#2563eb" stroke-width="2" opacity="0.5"/>
  <line x1="100" y1="100" x2="125" y2="90" stroke="#2563eb" stroke-width="2" opacity="0.5"/>
  <line x1="100" y1="100" x2="85" y2="115" stroke="#2563eb" stroke-width="2" opacity="0.5"/>
  <line x1="100" y1="100" x2="115" y2="115" stroke="#2563eb" stroke-width="2" opacity="0.5"/>
</svg>
